<?xml version="1.0" encoding="UTF-8" standalone="no"?>
<svg
   xmlns:dc="http://purl.org/dc/elements/1.1/"
   xmlns:cc="http://creativecommons.org/ns#"
   xmlns:rdf="http://www.w3.org/1999/02/22-rdf-syntax-ns#"
   xmlns:svg="http://www.w3.org/2000/svg"
   xmlns="http://www.w3.org/2000/svg"
   viewBox="0 0 2286.2268 1338.64"
   height="1338.64"
   width="2286.2268"
   xml:space="preserve"
   id="svg2"
   version="1.1"><metadata
     id="metadata8"><rdf:RDF><cc:Work
         rdf:about=""><dc:format>image/svg+xml</dc:format><dc:type
           rdf:resource="http://purl.org/dc/dcmitype/StillImage" /></cc:Work></rdf:RDF></metadata><defs
     id="defs6" /><g
     transform="matrix(1.3333333,0,0,-1.3333333,0,1338.64)"
     id="g10"><g
       transform="scale(0.1)"
       id="g12"><g
         transform="scale(1.05196)"
         id="g14"><path
           id="path16"
           style="fill:#040606;fill-opacity:1;fill-rule:nonzero;stroke:none"
           d="m 7109.64,7284.66 c -219.87,4.57 -429.96,-17.2 -642.51,-31.27 166.54,-87.84 334.99,-167.49 502.87,-248.49 28.04,-13.5 40.78,-5.03 49.9,21.58 28.81,84.13 58.37,168.07 89.74,258.18 z m 1619.83,21.3 c 20.15,-59.7 36.5,-110.08 54.09,-159.89 55.61,-157.42 55.8,-157.42 211.22,-83.75 147.35,69.96 294.69,140.12 441.94,210.18 -236.04,32.13 -468.08,26.81 -707.25,33.46 z M 12029,5813.79 c 84.4,0 169,0.96 253.4,-0.28 89.1,-1.33 109.1,-25.1 96.7,-111.79 -5.5,-38.88 -12,-77.66 -18.4,-116.35 -6.9,-42.02 6.8,-63.22 53.3,-61.7 73.1,2.38 146.5,-1.8 219.5,1.9 92.3,4.76 163.3,64.93 185.5,157.04 18.2,76.34 30.1,154.1 45.7,231.09 7.5,36.89 -6.6,53.05 -43.6,52 -22.6,-0.66 -45.1,0 -67.6,0.1 -159.6,0.09 -175,19.01 -143.8,176.81 1.6,8.27 3.2,16.54 4.9,24.81 12.6,61.7 -2,90.88 -75.4,89.55 -244.8,-4.37 -489.7,-1.24 -734.6,-1.81 -140,-0.28 -209.3,-56.94 -239.8,-196.77 -14,-64.26 -46.3,-97.15 -116.7,-93.92 -89.9,4.08 -180.1,1.33 -270.1,0.85 -154.5,-0.76 -226.8,-60.74 -255.6,-210.94 -9.5,-49.62 -17.8,-99.43 -29.1,-148.67 -14.5,-63.22 7.3,-84.7 73.1,-82.8 146.2,4.28 292.6,1.05 439,1.43 154,0.38 217.6,51.61 248,205.71 12.1,61.22 45.7,85.27 105.6,84.22 89.9,-1.61 179.9,-0.48 270,-0.48 z m -1306,441.37 c -206.9,17.87 -303.7,-74.62 -338.5,-285.84 -74.7,-454.01 -158.4,-906.5 -236.1,-1359.94 -12.4,-72.15 -46.1,-108.08 -120.4,-115.21 -129.65,-12.55 -210.26,-89.26 -233.93,-216.64 -20.53,-110.46 -36.89,-221.68 -58.65,-331.86 -37.74,-191.16 -38.88,-190.98 156.75,-190.4 162.53,0.47 239.63,52.29 291.53,201.81 20.9,60.46 58.5,90.69 122.2,98.29 132.5,15.88 205.6,87.55 229.5,220.16 26.3,146.39 51.2,292.97 77,439.37 81.5,461.52 164.4,922.84 243.8,1384.65 26.5,154.95 22.5,155.71 -133.2,155.61 z m -4131.06,0 c -118.25,0 -236.41,0.38 -354.67,-0.09 -140.12,-0.57 -224.72,-63.22 -265.02,-199.06 -18.54,-62.45 -54.48,-93.73 -122.25,-91.45 -87.17,2.95 -174.54,2.38 -261.71,0.1 -124.53,-3.33 -230.04,-77.19 -252.67,-186.13 -33.55,-162.08 -58.84,-325.96 -87.93,-488.99 -8.17,-45.63 5.23,-67.78 56.47,-66.35 98.48,2.75 197.06,0.76 295.54,0.76 207.62,0 211.8,-4.76 188.12,-207.43 -1.61,-13.97 -1.61,-28.04 -2.28,-42.11 -1.04,-23.19 8.66,-39.92 32.99,-39.16 95.06,3.23 192.12,-18.06 284.52,17.02 119.68,45.43 147.44,148 165.78,261.79 25.19,156.66 29.66,155.9 -121.2,161.89 -93.35,3.71 -134.04,50.57 -120.16,141.54 9.7,63.88 21.2,127.48 34.22,190.79 14.17,68.82 51.53,107.7 128.43,106.18 154.76,-2.85 309.61,-0.38 464.47,-1.04 106.46,-0.48 141.07,-40.59 129.18,-146.78 -15.97,-142.78 -15.97,-142.78 131.57,-142.68 237.93,0.09 286.99,40.59 332.33,274.72 31.08,160.46 31.08,160.46 -126.24,166.93 -83.94,3.52 -122.53,49.52 -109.22,131.18 4.46,27.76 7.12,56.28 16.06,82.61 21.96,64.35 -6.08,77.95 -64.83,76.52 -123.68,-2.75 -247.63,-0.76 -371.5,-0.76 z M 14812,3482.82 c 16.8,2.09 28.2,1.33 37.8,5.04 298.7,116.54 591.3,245.73 856.1,429.86 139.2,96.87 267.6,205.52 361.9,349.44 130.7,199.63 131.6,399.92 3.4,600.78 -38,59.51 -82.7,113.6 -133.2,163.03 -214.2,209.9 -474.1,348.5 -741.6,475.21 -24.1,11.41 -46.1,15.12 -69.3,-5.7 -41.8,-37.46 -93.3,-59.8 -159.7,-87.08 162.9,-128.14 205,-279.38 156.7,-475.3 -45,-182.13 -100.1,-338.7 -304.2,-398.97 14.9,-17.87 22.3,-29.94 32.5,-38.5 130.4,-108.94 173.8,-242.78 119.3,-406.19 -6.2,-18.44 -5.5,-38.98 -10.2,-58.08 -45.2,-183.66 -34.4,-381.86 -149.5,-553.54 z m -8947.65,272.35 c 168.83,0 337.66,-1.24 506.48,0.38 135.94,1.33 224.82,66.73 261.04,195.92 18.91,67.4 60.74,95.35 126.05,103.43 124.43,15.49 205.42,92.3 227,213.97 40.69,229.29 80.52,458.77 120.25,688.24 22.06,127.19 21.58,127.29 -103.42,127.95 -134.04,0.77 -161.41,35.27 -136.03,171.3 22.24,119.3 22.24,119.3 -96.4,119.3 -42.2,0 -84.41,1.14 -126.62,-0.57 -110.27,-4.47 -194.01,-64.83 -228.23,-168.63 -13.03,-39.55 -16.45,-82.33 -24.43,-123.58 -28.14,-144.4 -28.14,-144.4 114.73,-148.87 104.09,-3.23 141.45,-49.05 123.48,-152 -9.22,-52.57 -19.29,-104.85 -28.61,-157.42 -19.39,-108.84 -41.44,-128.52 -148.96,-128.9 -143.44,-0.38 -286.98,-0.29 -430.43,0.19 -129.38,0.47 -166.83,46.1 -142.5,172.82 2.67,13.78 7.13,27.19 9.89,40.97 10.17,50.57 -0.76,78.42 -62.46,77.09 -157.51,-3.51 -315.12,0.29 -472.64,-2.09 -107.32,-1.61 -202.85,-79.66 -223.29,-183.94 -31.75,-162.46 -56.85,-326.24 -89.07,-488.61 -9.51,-48.1 4.08,-61.79 48.76,-58.08 19.59,1.61 39.36,0.38 59.04,0.3 130.8,-0.87 167.4,-43.08 147.44,-170.65 -2.57,-16.63 -7.61,-32.79 -11.51,-49.24 -12.93,-55.23 0.48,-82.04 65.59,-80.61 171.49,3.8 343.17,1.23 514.85,1.33 z m 5410.85,1620.87 c -366.5,5.42 -426,21.68 -481,-336.04 -0.9,-5.51 -2,-11.02 -3.1,-16.54 -12.2,-59.98 -2.3,-94.29 73.6,-90.97 129.3,5.8 259,1.24 388.5,1.71 50.8,0.19 94,-13.4 92.5,-72.24 -1.3,-55.33 -41.6,-75.48 -93,-75.67 -90.1,-0.19 -180.3,-0.1 -270.4,-0.29 -178.7,-0.38 -242.8,-52.28 -273.9,-228.81 -43,-243.25 -80.9,-487.47 -126.8,-730.16 -11,-58.36 -1.7,-74.05 57.3,-72.91 154.8,3.04 309.7,-0.28 464.5,1.43 134.6,1.52 219.4,77 243,211.6 34.3,196.4 69.3,392.79 102.5,589.38 9,53.71 36.6,78.33 91.1,77.47 81.7,-1.42 163.4,0.58 245,-0.57 89.8,-1.14 107.2,-24.62 91.5,-114.16 -40.5,-229.39 -80.9,-458.77 -119.8,-688.43 -5.1,-29.85 -23,-73.96 34.4,-74.72 81.5,-1.14 164.1,-5.42 244.4,4.94 104.8,13.6 172.7,92.59 190.7,198.01 33.4,196.4 69.1,392.51 102.3,589 10,59.32 37.9,84.9 101.3,87.27 142.2,5.22 216.4,65.68 243.4,199.81 32.7,162.36 56.8,326.44 86.8,489.37 7.1,38.41 -4.8,52.09 -41.8,51.62 -64.7,-0.76 -129.5,0.47 -194.3,-0.48 -130.4,-2.09 -205.8,-60.84 -233.1,-187.46 -23.6,-109.7 -43,-220.35 -62.1,-330.99 -8.8,-50.48 -39.2,-66.45 -84.4,-58.65 -46.3,7.98 -55,43.91 -49.8,83.36 5.5,41.63 12.4,83.56 23.4,124.06 15.9,58.46 0.6,81.84 -63.7,80.04 -132.2,-3.71 -264.6,-1.81 -396.9,-0.67 -85.8,0.76 -104.8,23.48 -93.1,106.37 4.6,33.37 9.8,66.64 16.7,99.53 12.4,57.99 1.6,90.69 -69.3,85.84 -78.4,-5.13 -157.6,-1.05 -236.4,-1.05 z M 2271.73,4633.81 c 95.73,0 191.55,-1.9 287.28,0.48 140.21,3.42 222.06,62.83 248.39,194.3 15.97,79.76 52.76,107.04 131.28,107.32 117.49,0.48 193.44,69.87 214.55,186.7 45.53,251.53 85.08,504.3 136.6,754.59 17.87,86.7 -13.69,90.88 -82.42,89.84 -191.54,-3.05 -198.96,6.74 -161.22,195.15 13.41,67.02 2.09,96.3 -76.14,94.78 -236.51,-4.47 -473.12,-1.52 -709.63,-1.71 -170.92,-0.1 -222.34,-37.65 -266.93,-205.81 -16.73,-63.02 -50.19,-87.26 -114.26,-84.98 -95.63,3.42 -191.45,2.09 -287.18,0.47 -128.9,-2.18 -206.28,-64.45 -233.66,-188.5 -13.88,-63.03 -19.87,-127.86 -35.93,-190.22 -13.4,-52.18 4.75,-63.31 52.95,-62.74 157.71,1.9 315.41,0.19 473.11,0.95 138.51,0.67 211.8,60.74 237.28,200.01 10.93,59.89 39.26,89.93 100.76,89.64 180.23,-0.66 360.47,-0.29 540.7,-0.19 65.22,0 95.16,-35.07 84.8,-96.77 -30.99,-185.46 -66.16,-370.35 -97.92,-555.72 -9.31,-54.76 -39.82,-76.52 -92.77,-76.34 -183.09,0.57 -366.08,-0.47 -549.17,0.86 -62.83,0.47 -93.82,31.94 -80.51,97.91 8.36,41.26 15.39,82.8 23.57,124.05 8.56,43.45 0.95,69.21 -53.04,68.54 -166.17,-2.28 -332.34,1.14 -498.41,-1.8 -102.37,-1.81 -182.32,-68.64 -205.8,-168.45 -16.16,-68.25 -21.1,-139.36 -39.83,-206.76 -16.83,-60.65 10.07,-66.35 58.27,-65.78 132.33,1.61 264.75,0.19 397.07,0.76 52.66,0.19 103.33,-11.79 103.71,-72.43 0.38,-60.84 -53.04,-73.87 -103.43,-75.01 -90.11,-1.99 -180.23,-0.38 -270.35,-0.76 -163.5,-0.76 -234.7,-61.21 -262.46,-223.1 -41.26,-240.7 -77.57,-482.34 -125.95,-721.51 -16.546,-81.85 9.78,-89.07 76.81,-87.27 135.07,3.62 270.35,1.05 405.52,1.05 184.99,0.1 257.24,66.16 286.23,248.87 28.99,182.89 66.07,364.55 96.68,547.16 10.55,62.65 43.53,84.79 104.18,83.18 95.73,-2.66 191.55,-0.85 287.27,-0.76 z m 1607.66,-879.5 c 0,-0.76 0,-1.42 0,-2.18 157.62,0 315.13,0.77 472.74,-0.19 179.38,-1.14 223.2,28.51 264.84,201.24 14.92,61.69 47.05,91.83 106.56,100.95 162.74,24.91 223.58,89.93 252.39,256 87.93,505.82 177.38,1011.35 267.21,1516.78 24.43,137.56 25.95,137.27 -116.26,138.89 -109.79,1.24 -148.2,46.2 -129.47,152.76 2.95,16.54 8.17,32.7 11.6,49.15 13.02,61.97 -2.48,90.59 -75.48,89.16 -230.62,-4.46 -461.42,-1.52 -692.13,-1.71 -167.98,-0.09 -235.09,-45.72 -286.23,-203.24 -19.68,-60.36 -55.71,-87.26 -117.21,-86.79 -81.57,0.67 -163.22,0.38 -244.78,0 -167.59,-0.85 -259.52,-80.7 -288.42,-246.3 -88.88,-508.38 -178.42,-1016.77 -268.35,-1524.96 -24.15,-136.6 -25.29,-136.41 115.31,-139.55 108.56,-2.47 148.67,-50.85 129.09,-155.99 -3.04,-16.54 -7.51,-32.8 -10.93,-49.24 -13.31,-63.69 -1.05,-98.48 77.75,-96.3 177.2,5.04 354.58,1.52 531.77,1.52 z m 9723.61,0.76 c 214,0 428.1,-0.38 642.1,0.1 168.3,0.38 241,58.84 272.9,225.48 28.6,148.95 48.9,299.63 79.9,448.02 12.2,57.99 -4.7,68.45 -56.1,67.59 -123.9,-2.09 -247.9,-0.76 -371.7,-0.67 -202.8,0.1 -405.5,-0.38 -608.3,0.48 -98.8,0.38 -120.2,26.24 -104.6,121.01 11.4,69.21 28.9,137.94 33.9,207.61 6.2,89.36 53.9,111.13 134.5,110.37 287.1,-2.57 574.4,-1.52 861.7,-0.57 125,0.38 194.9,52.38 226.3,173.01 17.7,67.59 20.9,138.98 38.7,206.56 14.7,55.61 -8.7,63.03 -54.1,62.08 -75.9,-1.62 -152.1,-0.48 -228,-0.38 -253.4,0.09 -506.9,-0.38 -760.4,0.66 -89.9,0.38 -115,32.33 -99.6,119.4 11.8,66.45 24.7,132.61 35,199.25 15.9,101.42 34.3,118.63 135.7,118.72 281.6,0.2 563.2,-0.28 844.8,0.29 153.1,0.29 231.5,70.25 254.6,223.68 6.6,44.39 13,89.36 25.4,132.32 20,69.59 -5.1,87.08 -73.7,86.51 -343.6,-2.85 -687.1,-1.05 -1030.7,-1.52 -141,-0.19 -212.4,-57.23 -242.3,-194.88 -13.8,-63.78 -44.3,-98.48 -115.2,-95.82 -98.4,3.81 -197.1,2.38 -295.6,0.38 -113.1,-2.28 -204.4,-67.02 -225,-169.02 -33.4,-165.12 -59,-331.76 -88.7,-497.64 -9.6,-53.51 5.7,-76.8 64.8,-75.19 132.2,3.42 264.7,0.57 397.1,1.24 50.2,0.28 94.8,-10.93 94.1,-70.25 -0.7,-59.32 -46.5,-69.21 -95.9,-68.92 -95.8,0.47 -191.5,0.76 -287.3,-0.09 -138.6,-1.24 -216.2,-60.65 -242.5,-197.17 -45.2,-234.32 -84.5,-469.68 -127.5,-704.39 -23.6,-129.09 -24.8,-128.9 109.9,-129.09 16.9,0 33.9,-0.3 50.7,-0.1 63.3,0.67 95,-29.75 89.4,-93.63 -3.2,-36.22 -8.4,-72.53 -16.1,-108.18 -14.8,-68.35 -2.6,-101.52 81.1,-99.24 217,5.99 433.9,1.99 650.7,1.99 z M 3551.91,2933.56 c 440.23,-83.55 882.54,-143.44 1326.28,-192.21 867.9,-95.25 1738.66,-147.82 2611.5,-164.45 1267.82,-24.14 2532.71,23 3794.01,159.03 842.3,90.88 1677.7,221.59 2500.7,425.11 208.3,51.52 415.9,106.18 617,186.41 -30.7,0 -61.5,0 -92.3,0 -385.7,0 -771.4,0.2 -1157.1,-0.19 -93.8,-0.09 -176.4,20.92 -239.3,99.34 -50.8,63.41 -108.8,121.11 -164.6,180.33 -65,68.83 -111.9,60.75 -143,-26.42 -17.5,-49.06 -44.8,-90.88 -79.4,-128.14 -113.3,-122.25 -495.9,-182.81 -634.1,-90.31 -57.3,38.21 -103,35.84 -161.7,21.95 -1081.2,-255.42 -2179.66,-394.59 -3285.8,-478.72 -606.49,-46.1 -1214.02,-69.77 -1822.12,-79.18 -954.79,-14.74 -1908.24,13.78 -2860.36,88.88 -69.87,5.51 -140.03,15.4 -209.71,-1.43 z M 8973.58,6152.4 c -2.37,102.86 -2.37,102.86 -99.42,102.86 -112.65,0 -225.3,0 -337.95,0 -247.34,0 -247.34,0 -339.17,-234.52 -1.04,-2.66 -2.18,-5.22 -3.23,-7.79 -14.46,-37.08 -41.83,-52.19 -80.24,-44.59 -37.83,7.51 -48.86,36.32 -45.82,69.97 4,44.68 9.8,89.26 17.97,133.37 11.03,59.32 -2.56,87.26 -71.86,85.08 -151.91,-4.76 -304.1,-0.86 -456.2,-1.71 -126.05,-0.76 -198.68,-57.32 -224.72,-183.38 -25,-120.82 -42.49,-243.25 -63.6,-364.93 -9.5,-54.95 -48.57,-120.82 -21.1,-161.89 33.27,-49.72 108.94,-14.64 165.88,-20.34 74.91,-7.51 102.47,-37.93 89.93,-109.32 -52.86,-301.34 -106.19,-602.49 -159.52,-903.74 -39.16,-221.3 -77.66,-442.7 -118.72,-663.62 -12.46,-66.92 0,-97.24 77.76,-94.2 146.2,5.7 292.87,0.19 439.27,2.09 141.83,1.81 218.07,67.02 244.11,206.38 28.33,151.81 55.33,303.81 82.04,455.91 74.91,425.87 149.06,851.83 224.45,1277.7 19.76,111.89 29.37,113.51 143.24,119.4 152.77,7.98 313.32,-42.4 458.1,70.25 0,-29 2.09,-43.16 -0.29,-56.47 -63.96,-365.13 -128.23,-730.16 -192.78,-1095.09 -35.65,-201.72 -72.33,-403.35 -107.51,-605.16 -6.47,-36.88 -11.69,-70.06 47.06,-75.19 217.49,-18.82 218.06,-20.91 190.3,-236.13 -5.41,-42.4 2.67,-63.03 50.58,-62.55 157.7,1.81 315.6,-3.52 473.11,2.28 133.56,4.95 225.41,92.59 248.79,223.11 23.29,129.85 46.01,259.8 68.26,389.84 21.39,124.91 21,124.91 -105.52,126.05 -122.65,1.05 -161.81,43.45 -142.23,159.32 23.87,141.17 51.33,281.76 76.05,422.73 65.42,373.4 128.92,747.18 196.41,1120.19 9.03,49.72 -5.61,58.09 -48.76,57.61 -129.57,-1.52 -259.24,-3.8 -388.63,0.48 -107.89,3.32 -208.56,-5.42 -286.04,-104 z M 4555.08,1401.48 c -11.5,34.6 14.26,58.08 26.81,84.6 162.08,342.98 324.16,685.86 488.8,1027.51 25.29,52.56 28.71,72.44 -40.78,79.57 -517.7,53.32 -1033.49,121.29 -1546.25,211.6 -459.71,80.89 -916.1,176.43 -1366.4,300.2 -47.05,12.92 -75.48,23.1 -61.6,82.89 12.36,52.95 34.89,65.3 86.22,57.61 467.6,-70.16 937.49,-121.02 1408.51,-161.13 563.9,-48.01 1128.65,-81.28 1694.55,-95.35 35.45,-0.85 56.18,8.18 71.48,42.4 42.3,94.87 89.07,187.84 132.52,282.23 6.56,14.36 30.7,35.56 -1.71,48.3 -128.24,50.19 -187.37,173.96 -279.77,262.17 -67.49,64.36 -134.13,55.15 -174.72,-26.9 -60.74,-122.71 -153.05,-210.56 -291.83,-232.23 -149.15,-23.29 -300.77,-49.91 -443.08,31.84 -13.5,7.8 -25.66,9.03 -39.26,2.19 -148.58,-74.82 -308.57,-46.3 -464.84,-51.24 -47.82,-1.52 -96.02,2.85 -143.55,-0.85 -123.01,-9.61 -221.77,26.61 -306.75,122.24 -104.95,118.07 -211.71,234.04 -304.1,362.56 -16.26,22.63 -33.84,47.63 -56.85,61.32 -98.01,58.27 -122.72,143.16 -91.26,246.01 23.96,78.14 -2.85,93.73 -78.14,90.69 -146.2,-6.08 -292.78,-3.23 -439.18,-0.85 -44.87,0.75 -63.21,-12.55 -70.72,-58.86 -26.05,-161.12 -54.28,-322.05 -87.27,-481.94 -45.72,-221.78 -191.45,-339.08 -416.08,-340.33 -152,-0.84 -304.1,0 -456.19,-0.28 -91.07,-0.19 -170.16,21.67 -230.81,98.2 -39.92,50.29 -87.359,95.82 -136.79,137.08 -65.495,54.66 -112.643,117.31 -116.26,217.31 -71.766,-54.95 -135.36,-100.58 -195.252,-150.67 -31.37,-26.24 -50.189,-23.86 -74.429,7.98 -100.575,132.13 -201.057,264.37 -305.333,393.55 -37.742,46.68 -4.664,62.46 24.047,84.7 222.63,172.16 444.882,344.88 668.178,516.18 41.73,32.03 73.479,67.68 80.519,126.9 -319.121,40.88 -636.24,82.61 -953.8381,120.91 -51.043,6.19 -71.2953,12.08 -61.12087,74.06 24.99787,152.19 39.34977,306.1 55.79597,459.62 5.3249,50 17.1146,72.44 77.953,63.97 298.107,-41.44 596.976,-77.09 895.65,-114.45 33.18,-4.18 66.45,-6.84 100.3,-10.26 13.21,42.68 -19.97,59.69 -36.7,81.56 -186.788,243.35 -374.06,486.33 -563.988,727.21 -35.365,44.87 -37.553,69.11 11.689,104.94 122.818,89.46 242.787,183 360.662,278.82 43.627,35.46 66.921,38.78 103.427,-11.31 101.14,-138.6 210.36,-271.31 313.32,-408.67 30.6,-40.88 53.51,-60.46 108.27,-33.55 60.36,29.66 130.23,35.93 198.39,30.89 48.76,-3.61 68.25,11.12 73.67,63.69 18.63,179 44.96,357.24 65.88,536.05 6.94,59.69 13.31,93.06 94.39,76.81 148.2,-29.66 299.92,-43.26 450.88,-56.57 54.84,-4.85 67.2,-22.91 57.41,-72.81 -10.84,-55.14 -13.59,-111.79 -24.81,-166.83 -12.55,-61.41 -3.04,-88.89 71.2,-86.41 174.34,5.89 349.54,-5.71 523.5,4.37 136.6,7.89 240.02,-45.16 331.95,-134.04 59.89,-57.89 106.37,-150 176.05,-171.96 68.06,-21.39 159.42,13.78 240.69,7.23 72.54,-5.9 113.69,14.73 149.44,85.26 72.72,143.55 208.28,205.15 362.18,209.14 258.85,6.74 518.08,2.18 777.12,1.8 86.03,-0.09 158.56,-35.36 219.2,-94.01 64.55,-62.45 134.99,-120.16 182.05,-198.3 26.42,-43.82 61.88,-35.74 94.01,-16.92 38.6,22.72 3.71,49.72 -6.18,70.73 -196.01,419.21 -392.22,838.43 -590.32,1256.7 -97.34,205.51 -199.34,408.85 -297.83,613.9 -11.4,23.76 -35.26,45.72 -22.62,77.28 l -1.14,-1.62 c 183.94,-69.77 356.66,-163.69 534.33,-247.06 345.93,-162.36 690.71,-327.2 1035.4,-492.22 44.49,-21.29 88.03,-29.18 137.84,-26.33 269.87,15.21 539.84,29.75 809.91,37.92 66.64,2 96.77,20.82 119.4,85.18 232.8,662.47 469.4,1323.72 704.96,1985.24 6.47,18.25 13.98,36.22 21.39,55.23 28.71,-12.26 27.09,-38.88 34.41,-59.32 231.19,-648.21 463.62,-1295.95 690.24,-1945.69 28.23,-80.9 65.02,-103.24 148.01,-103.71 287.08,-1.62 574.26,-12.08 861.26,-22.25 52.57,-1.81 98.68,6.85 145.83,29.38 468.98,224.15 938.68,446.97 1408.18,669.98 27.2,12.93 55,24.62 105.3,46.96 -282.2,-593.56 -554.9,-1167.15 -838.7,-1764.22 108.5,44.86 203.1,37.45 296.6,44.86 129.8,10.17 229.1,-42.87 318.2,-126.24 45.2,-42.3 89.3,-86.22 128.6,-133.75 22.2,-26.9 45.9,-32.13 77.8,-38.68 132.2,-27.19 130.6,88.49 181.9,158.46 -135.7,24.81 -256.4,67.78 -356.6,156 -202.6,178.33 -250.1,422.92 -157.6,658.86 96.4,245.63 325,386.99 577.6,369.31 266.5,-18.73 468.3,-190.22 535.6,-450.78 29.4,-113.79 12.1,-230.05 26.8,-344.4 0.8,-5.61 1.1,-11.22 2,-16.73 44.2,-292.41 31.8,-232.62 292.9,-228.34 -152.2,179.76 -192.8,379.86 -125.2,599.74 49.6,161.41 149.9,282.33 302.8,355.43 301.2,144.11 672.7,-5.23 798.4,-319.12 140.1,-349.92 -47.2,-668.94 -481.4,-813.14 34.5,-44.4 67.7,-87.56 101.5,-130.14 5,-6.18 15.2,-15.21 19.6,-13.6 83.4,30.42 180.2,-3.61 257.7,59.32 156.4,127.1 243.1,292.12 275.4,487.95 38.6,233.56 138.8,425.3 373.5,510.47 217.7,78.9 424.2,41.44 601.2,-108.37 175.1,-148.2 225,-343.74 179.6,-564.37 -11.6,-56.09 -0.5,-78.24 58.3,-69.87 270.8,38.5 394.8,-156.95 527.4,-335.18 24.5,-32.9 28.9,-77.67 20,-121.68 -15,-74.43 -25.6,-149.72 -40.2,-224.34 -23.8,-122.63 -24.4,-122.25 89.9,-179.29 212,-105.8 416.1,-223.96 596.4,-379.58 81.3,-70.24 154.8,-147.53 215.8,-236.31 179.5,-261.9 178.4,-532.45 -6.1,-792.9 -134.5,-189.84 -316.5,-327.01 -512.6,-445.84 -441.4,-267.21 -923.4,-436.51 -1415.9,-578.44 -785.3,-226.24 -1587.2,-369.97 -2396.7,-476.26 -329.3,-43.24 -659.2,-80.51 -989.9,-108.55 -86.7,-7.42 -75.3,-34.41 -46.7,-93.82 157.6,-326.44 312.1,-654.3 467.2,-981.88 11.5,-24.34 30.6,-46.2 29,-77.86 -31.8,-6.46 -53.2,14.74 -77,25.95 -690.6,327.49 -1381.61,653.92 -2070.44,985.12 -107.51,51.71 -214.75,26.71 -322.45,29.75 -41.34,1.14 -38.4,-42.3 -48,-69.11 C 8591.35,1859.19 8406.64,1340.54 8221.94,821.893 8124.89,549.449 8028.02,276.912 7929.54,0 7897.69,24.6191 7895.79,59.5093 7885.43,88.5027 7613.55,850.411 7341.97,1612.51 7073.04,2375.46 c -20.72,58.75 -46.77,81.66 -110.74,86.79 -101.62,8.08 -190.69,-10.74 -283.09,-55.13 -681.3,-327.28 -1364.78,-650.12 -2047.7,-973.99 -25,-11.88 -47.53,-30.6 -77.47,-29.85 l 1.04,-1.8" /></g><path
         id="path18"
         style="fill:#040606;fill-opacity:1;fill-rule:nonzero;stroke:none"
         d="m 4791.78,8570.9 c -3.4,1.2 -6.7,2.5 -10.1,3.7 1.5,0.3 3.7,1.3 4.4,0.7 1.8,-1.7 3,-4.1 4.5,-6.2 0,0.1 1.2,1.8 1.2,1.8" /><path
         id="path20"
         style="fill:#040606;fill-opacity:1;fill-rule:nonzero;stroke:none"
         d="m 4790.58,1476.1 c -1.4,-2.2 -2.6,-4.6 -4.4,-6.3 -0.7,-0.6 -2.9,0.4 -4.5,0.6 3.4,1.3 6.7,2.7 10.1,4 0,-0.1 -1.2,1.7 -1.2,1.7" /><path
         id="path22"
         style="fill:#040606;fill-opacity:1;fill-rule:nonzero;stroke:none"
         d="m 5023.78,5608.4 c -17.5,-99.1 -72.5,-189.7 -136.4,-275.7 -82.2,-110.7 -76.9,-130.6 53.5,-175.6 41.8,-14.4 85.3,-23.8 128.2,-34.8 21.5,-5.5 53,2.8 55.6,-30.5 2.6,-33.1 -20,-54 -48.1,-68.1 -98.6,-49.4 -203.1,-80.7 -311.7,-97.5 -87.1,-13.5 -102.6,-34.9 -67.9,-115.2 22.2,-51.3 51.9,-99.5 79.6,-148.3 13.6,-24 28.9,-47.3 6.3,-72.6 -21.1,-23.7 -46.3,-17.7 -73.3,-7.8 -103.5,37.8 -200.5,86.89 -289.3,152.7 -71.4,53 -99.9,46.3 -132.5,-35.7 -20.6,-51.8 -32.8,-107.1 -47.1,-161.3 -6,-22.7 -4.9,-49.2 -35,-54.9 -32.9,-6.2 -48,17.3 -61.3,41 -55.7,99.3 -88.3,206.6 -99.7,319 -7.9,77.4 -43,97.4 -112.6,71.4 -55.8,-20.9 -106.1,-51.5 -154.3,-86 -21.1,-15.1 -40.7,-40 -69.4,-16 -23.7,19.8 -22,46.1 -13.6,73.4 33.9,108.8 91.4,205.6 158.7,295.9 49,65.7 37.7,107.3 -37.4,133.3 -52.9,18.3 -106.7,34.1 -160.4,50.1 -23.9,7.1 -56.7,0.3 -55.6,41.2 1,35.1 24.4,53.1 52,65.5 100.3,44.9 205,78.6 313.9,90.7 77,8.5 88.3,39.4 64.1,105.7 -20.7,56.7 -56.5,103.6 -86,154.6 -12.5,21.6 -38.4,44.6 -14.8,71.5 22.2,25.4 51.7,20 81.9,10.3 99.9,-31.9 187.7,-86 273.1,-144.9 95.5,-65.9 112.3,-61.5 155.7,49 18.3,46.5 28.5,96.1 42.8,144.2 6.2,20.7 -2.8,52.1 32.3,54.1 30.8,1.8 49.9,-20.4 62.3,-43.4 43.8,-81.3 68.8,-169.8 87,-259.5 32.7,-161.2 49.6,-170.7 199.5,-94.1 28.8,14.7 55.6,33.5 83.2,50.7 16.6,10.4 29.6,33.3 53.6,20 24.9,-13.8 23.1,-39.3 23.1,-72.4" /></g></g></svg>